<?xml version="1.0" encoding="iso-8859-1"?>
<!-- Uploaded to: SVG Repo, www.svgrepo.com, Generator: SVG Repo Mixer Tools -->
<svg height="800px" width="800px" version="1.1" id="Layer_1" xmlns="http://www.w3.org/2000/svg" xmlns:xlink="http://www.w3.org/1999/xlink" 
	 viewBox="0 0 512 512" xml:space="preserve">
<g>
	<polygon style="fill:#FF4181;" points="412.443,50.581 343.056,50.581 343.056,342.404 473.106,342.404 	"/>
	<path style="fill:#FF4181;" d="M210.98,482.107l-36.138-170.36l-23.736,5.035l36.137,170.36c1.21,5.706,6.247,9.617,11.856,9.617
		c0.835,0,1.682-0.086,2.53-0.267C208.184,495.102,212.371,488.662,210.98,482.107z"/>
	<path style="fill:#FF4181;" d="M499.852,496.759c-5.609,0-10.646-3.912-11.856-9.617L391.545,32.431l21.159-17.189l99.03,466.866
		c1.39,6.555-2.797,12.995-9.351,14.386C501.534,496.673,500.687,496.759,499.852,496.759z"/>
</g>
<g>
	<path style="fill:#FF755C;" d="M29.913,342.349L0.267,482.107c-1.39,6.555,2.797,12.995,9.351,14.386
		c0.849,0.18,1.695,0.267,2.53,0.267c5.608,0,10.646-3.912,11.856-9.617l36.671-172.877L29.913,342.349z"/>
	<path style="fill:#FF755C;" d="M318.532,342.349l-29.646,139.758c-1.39,6.555,2.797,12.995,9.351,14.386
		c0.849,0.18,1.695,0.267,2.53,0.267c5.608,0,10.646-3.912,11.856-9.617l30.432-144.738l-4.555-40.273L318.532,342.349z"/>
</g>
<polygon style="fill:#FFCE47;" points="99.557,15.296 30.17,342.404 343.056,342.404 412.443,15.296 "/>
<g>
	<path style="fill:#174461;" d="M307.111,112.76H168.686c-6.7,0-12.133-5.432-12.133-12.133s5.433-12.133,12.133-12.133h138.424
		c6.7,0,12.133,5.432,12.133,12.133S313.81,112.76,307.111,112.76z"/>
	<path style="fill:#174461;" d="M296.049,164.909H157.625c-6.7,0-12.133-5.432-12.133-12.133s5.433-12.133,12.133-12.133h138.424
		c6.7,0,12.133,5.432,12.133,12.133S302.749,164.909,296.049,164.909z"/>
	<path style="fill:#174461;" d="M284.988,217.056H146.564c-6.7,0-12.133-5.432-12.133-12.133s5.433-12.133,12.133-12.133h138.424
		c6.7,0,12.133,5.432,12.133,12.133S291.688,217.056,284.988,217.056z"/>
	<path style="fill:#174461;" d="M273.926,269.204H135.502c-6.7,0-12.133-5.432-12.133-12.133c0-6.701,5.433-12.133,12.133-12.133
		h138.424c6.7,0,12.133,5.432,12.133,12.133C286.059,263.772,280.626,269.204,273.926,269.204z"/>
</g>
</svg>